<svg xmlns="http://www.w3.org/2000/svg" xmlns:xlink="http://www.w3.org/1999/xlink" width="500" zoomAndPan="magnify" viewBox="0 0 375 374.999991" height="500" preserveAspectRatio="xMidYMid meet" version="1.0"><defs><clipPath id="2b02cfc8ab"><path d="M 98 66 L 277 66 L 277 310.058594 L 98 310.058594 Z M 98 66 " clip-rule="nonzero"/></clipPath></defs><rect x="-37.5" width="450" fill="#ffffff" y="-37.499999" height="449.999989" fill-opacity="1"/><rect x="-37.5" width="450" fill="#ffffff" y="-37.499999" height="449.999989" fill-opacity="1"/><path fill="#566220" d="M 267.683594 170.363281 C 259.121094 143.96875 249.058594 120.039062 234.042969 96.703125 C 228.921875 88.757812 223.605469 80.679688 216.097656 74.933594 C 208.59375 69.191406 196.207031 66.113281 187.351562 69.40625 C 178.5 66.113281 166.113281 69.191406 158.609375 74.933594 C 151.101562 80.679688 145.785156 88.757812 140.664062 96.703125 C 125.648438 120.039062 115.585938 143.96875 107.015625 170.363281 C 98.453125 196.765625 96.453125 226.195312 106.789062 251.953125 C 120.167969 285.292969 151.742188 308.019531 187.351562 308.847656 C 222.964844 308.019531 254.539062 285.292969 267.917969 251.953125 C 278.257812 226.195312 276.253906 196.765625 267.683594 170.363281 " fill-opacity="1" fill-rule="nonzero"/><g clip-path="url(#2b02cfc8ab)"><path fill="#2a2a17" d="M 179.191406 69.191406 C 171.875 69.191406 164.183594 72.128906 159.3125 75.855469 C 151.734375 81.660156 146.371094 89.988281 141.640625 97.335938 C 128.105469 118.359375 117.765625 140.996094 108.121094 170.722656 C 98.699219 199.761719 98.605469 228.453125 107.867188 251.519531 C 121.226562 284.828125 152.441406 306.875 187.382812 307.683594 C 222.265625 306.875 253.476562 284.828125 266.839844 251.519531 C 276.101562 228.457031 276.003906 199.761719 266.585938 170.722656 C 256.933594 140.992188 246.59375 118.359375 233.066406 97.335938 C 228.332031 89.988281 222.972656 81.660156 215.390625 75.855469 C 208.734375 70.75 196.78125 67.136719 187.757812 70.496094 L 187.351562 70.644531 L 186.949219 70.496094 C 184.523438 69.585938 181.878906 69.191406 179.191406 69.191406 Z M 187.382812 310.007812 C 151.457031 309.171875 119.425781 286.558594 105.710938 252.390625 C 96.253906 228.816406 96.328125 199.558594 105.921875 170.007812 C 115.625 140.082031 126.046875 117.28125 139.691406 96.078125 C 144.523438 88.566406 150.003906 80.0625 157.902344 74.019531 C 164.964844 68.605469 177.605469 64.777344 187.351562 68.175781 C 197.097656 64.777344 209.742188 68.605469 216.804688 74.019531 C 224.703125 80.0625 230.183594 88.566406 235.015625 96.078125 C 248.660156 117.273438 259.078125 140.078125 268.785156 170.007812 C 278.378906 199.558594 278.449219 228.816406 268.992188 252.390625 C 255.28125 286.558594 223.25 309.171875 187.382812 310.007812 " fill-opacity="1" fill-rule="nonzero"/></g><path fill="#87bf2d" d="M 187.351562 306.90625 C 153.207031 306.054688 122.710938 284.464844 109.632812 251.863281 C 100.480469 229.0625 100.609375 200.558594 110.007812 171.605469 C 119.851562 141.28125 130.371094 118.230469 144.125 96.859375 C 148.804688 89.589844 154.109375 81.359375 161.277344 75.867188 C 165.941406 72.296875 172.871094 69.992188 178.945312 69.992188 C 181.320312 69.992188 183.445312 70.332031 185.265625 71.007812 L 187.351562 71.785156 L 189.441406 71.007812 C 191.261719 70.332031 193.382812 69.992188 195.761719 69.992188 C 201.832031 69.992188 208.765625 72.296875 213.429688 75.867188 C 220.597656 81.359375 225.902344 89.589844 230.582031 96.859375 C 244.335938 118.230469 254.855469 141.28125 264.699219 171.605469 C 274.089844 200.558594 274.226562 229.058594 265.074219 251.863281 C 251.996094 284.464844 221.5 306.054688 187.351562 306.90625 " fill-opacity="1" fill-rule="nonzero"/><path fill="#fdf18b" d="M 187.351562 291.441406 C 159.078125 290.621094 133.816406 272.601562 122.925781 245.472656 C 115.085938 225.929688 115.304688 201.164062 123.554688 175.738281 C 132.753906 147.398438 142.539062 125.925781 155.285156 106.125 C 159.296875 99.890625 163.847656 92.835938 169.171875 88.753906 C 171.667969 86.839844 175.894531 85.457031 179.222656 85.457031 C 180.496094 85.457031 181.132812 85.652344 181.296875 85.71875 L 187.351562 87.964844 L 193.414062 85.714844 C 193.574219 85.652344 194.210938 85.457031 195.484375 85.457031 C 198.8125 85.457031 203.039062 86.839844 205.53125 88.753906 C 210.859375 92.835938 215.40625 99.898438 219.421875 106.128906 C 232.171875 125.929688 241.953125 147.398438 251.152344 175.738281 C 259.402344 201.164062 259.625 225.929688 251.78125 245.472656 C 240.898438 272.601562 215.625 290.621094 187.351562 291.441406 " fill-opacity="1" fill-rule="nonzero"/><path fill="#b69931" d="M 187.351562 265.117188 C 160.800781 265.117188 139.195312 243.496094 139.195312 216.921875 C 139.195312 204.03125 144.191406 190.503906 152.90625 179.800781 C 162.378906 168.175781 174.613281 161.765625 187.351562 161.765625 C 200.09375 161.765625 212.328125 168.175781 221.800781 179.800781 C 230.515625 190.503906 235.511719 204.03125 235.511719 216.921875 C 235.511719 243.496094 213.910156 265.117188 187.351562 265.117188 " fill-opacity="1" fill-rule="nonzero"/><path fill="#782a18" d="M 233.546875 216.84375 C 233.546875 242.375 212.867188 263.066406 187.351562 263.066406 C 161.839844 263.066406 141.160156 242.375 141.160156 216.84375 C 141.160156 191.316406 161.839844 163.019531 187.351562 163.019531 C 212.867188 163.019531 233.546875 191.316406 233.546875 216.84375 " fill-opacity="1" fill-rule="nonzero"/></svg>